<?xml version="1.0" encoding="utf-8"?>
<!-- Generator: Adobe Illustrator 19.0.0, SVG Export Plug-In . SVG Version: 6.00 Build 0)  -->
<svg version="1.1" id="Camada_1" xmlns="http://www.w3.org/2000/svg" xmlns:xlink="http://www.w3.org/1999/xlink" x="0px" y="0px"
	 viewBox="-180 5 599 352" style="enable-background:new -180 5 599 352;" xml:space="preserve">
<style type="text/css">
	.st0{fill:#F7F7F7;}
	.st1{fill:#D3D3D3;}
	.st2{fill:#1772AF;}
	.st3{fill:#F2F2F2;}
	.st4{fill:#0E538C;}
	.st5{fill:none;}
	.st6{fill:none;stroke:#D3D3D3;stroke-width:2;stroke-linecap:round;stroke-miterlimit:10;}
	.st7{fill:#FFD18D;}
	.st8{fill:#FFBE55;}
	.st9{fill:#43AFFF;}
	.st10{fill:#2A94F4;}
	.st11{fill:#B6E7FF;}
	.st12{fill:#85DDFF;}
	.st13{fill:#41AAF7;}
	.st14{display:none;fill:#41AAF7;}
	.st15{fill:#CCE9FF;}
	.st16{fill:#FCD2B1;}
	.st17{fill:#082735;}
	.st18{fill:#0B4870;}
	.st19{fill:#0A3E5B;}
	.st20{fill:#FFFFFF;}
	.st21{fill:#FFE3CA;}
	.st22{fill:#9FDAFF;}
	.st23{fill:#85D6FF;}
</style>
<g>
	<path class="st0" d="M53.2,62.9C42.7,66,32.2,69.7,25,75.6c-7.4,5.9-11,14.4-6.6,21.5c5.9,9.4,24.5,15,24.6,25.3
		c0.1,7.4-10.1,13-20.2,15.7c-10.2,2.7-21.5,3.6-30.8,7.6c-14,5.9-20.5,17.3-23.2,28.3c-2.8,11.4-1.7,24.4,10.3,32.6
		c14.9,10.3,39.5,9.1,60.6,6.9c28.1-2.9,56.1-6.3,84.1-9.7c61.3-7.5,122.7-15,184.1-22.5c6.5-0.8,13.4-1.7,18.8-4.4
		c10.6-5.4,11.5-16.4,5.3-24.4c-6.2-7.9-17.5-13.3-28.9-17.9c-11.4-4.7-23.3-9-31.8-15.9c-8.5-6.8-12.8-17-6.2-24.8
		c5.4-6.6,17.1-10.2,22.3-16.9c6.7-8.9-1-20.2-13.2-25.8S108.6,46.7,53.2,62.9z"/>
</g>
<path class="st1" d="M395,349.7h-546.7c-3.2,0-5.9-1.9-5.9-4v-17.9c0-2.2,2.7-4,5.9-4H395c3.2,0,5.9,1.9,5.9,4v17.9
	C400.9,347.8,398.2,349.7,395,349.7z"/>
<g>
	<g>
		<path class="st2" d="M207.9,340.3H24.7c-13.1,0-23.5-11.7-23.5-26.2c0-7.3,2.6-13.8,6.8-18.6c4.3-4.8,10.2-7.7,16.7-7.7h183.2
			V340.3z"/>
		<path class="st3" d="M83.4,291.3H254c0.2,0,0.4,0.2,0.4,0.4v44.5c0,0.2-0.2,0.4-0.4,0.4H83.4c-11.7,0-21.4-9-21.4-20.3v-4.8
			C62.1,300.4,71.5,291.3,83.4,291.3z"/>
		<path class="st4" d="M69.1,300c-3.2,3.6-5.2,8.5-5.2,14c0,11,8,19.8,17.8,19.8h182.9v6.3H81.5c-13.1,0-23.5-11.7-23.5-26.2
			c0-7.3,2.6-13.8,6.8-18.6s10.2-7.7,16.7-7.7h183.2v6.3H81.8C76.9,294.2,72.4,296.4,69.1,300z"/>
		<g>
			<g>
				<line class="st5" x1="83.8" y1="326.7" x2="248.1" y2="326.7"/>
				<line class="st6" x1="83.8" y1="326.7" x2="248.1" y2="326.7"/>
			</g>
			<g>
				<line class="st5" x1="83.8" y1="318.7" x2="248.1" y2="318.7"/>
				<line class="st6" x1="83.8" y1="318.7" x2="248.1" y2="318.7"/>
			</g>
			<g>
				<line class="st5" x1="83.8" y1="310.8" x2="248.1" y2="310.8"/>
				<line class="st6" x1="83.8" y1="310.8" x2="248.1" y2="310.8"/>
			</g>
			<g>
				<line class="st5" x1="83.8" y1="302.8" x2="248.1" y2="302.8"/>
				<line class="st6" x1="83.8" y1="302.8" x2="248.1" y2="302.8"/>
			</g>
		</g>
	</g>
	<g>
		<path class="st7" d="M67.4,287.8h174.8c12.4,0,22.5-9.2,22.5-20.5c0-5.7-2.5-10.8-6.6-14.5c-4-3.7-9.6-6-16-6H67.4V287.8z"/>
		<path class="st3" d="M188.2,249.5H23.3c-0.2,0-0.4,0.2-0.4,0.3v34.7c0,0.2,0.2,0.3,0.4,0.3h164.9c10.2,0,18.4-7.9,18.4-17.5v-0.5
			C206.5,257.3,198.4,249.5,188.2,249.5z"/>
		<path class="st8" d="M199.8,256.3c3.1,2.8,5,6.6,5,11c0,8.6-7.6,15.6-17,15.6H13.3v5h174.8c12.4,0,22.5-9.2,22.5-20.5
			c0-5.7-2.5-10.8-6.6-14.5c-4-3.7-9.6-6-16-6H13.3v5h174.5C192.4,251.7,196.7,253.5,199.8,256.3z"/>
		<g>
			<g>
				<line class="st5" x1="185.8" y1="280.8" x2="29" y2="280.8"/>
				<line class="st6" x1="185.8" y1="280.8" x2="29" y2="280.8"/>
			</g>
			<g>
				<line class="st5" x1="185.8" y1="272.8" x2="29" y2="272.8"/>
				<line class="st6" x1="185.8" y1="272.8" x2="29" y2="272.8"/>
			</g>
			<g>
				<line class="st5" x1="185.8" y1="264.9" x2="29" y2="264.9"/>
				<line class="st6" x1="185.8" y1="264.9" x2="29" y2="264.9"/>
			</g>
			<g>
				<line class="st5" x1="185.8" y1="257" x2="29" y2="257"/>
				<line class="st6" x1="185.8" y1="257" x2="29" y2="257"/>
			</g>
		</g>
	</g>
	<g>
		<path class="st9" d="M207.9,246.7H24.7c-13.1,0-23.5-11.7-23.5-26.2c0-7.3,2.6-13.8,6.8-18.6s10.2-7.7,16.7-7.7h183.2V246.7z"/>
		<path class="st3" d="M83.4,197.8H254c0.2,0,0.4,0.2,0.4,0.4v44.5c0,0.2-0.2,0.4-0.4,0.4H83.4c-11.7,0-21.4-9-21.4-20.3v-4.9
			C62.1,206.9,71.5,197.8,83.4,197.8z"/>
		<path class="st10" d="M69.1,206.5c-3.2,3.6-5.2,8.5-5.2,14c0,11,8,19.8,17.8,19.8h182.9v6.3H81.5c-13.1,0-23.5-11.7-23.5-26.2
			c0-7.3,2.6-13.8,6.8-18.6c4.3-4.8,10.2-7.7,16.7-7.7h183.2v6.3H81.8C76.9,200.6,72.4,202.9,69.1,206.5z"/>
		<g>
			<g>
				<line class="st5" x1="83.8" y1="233.1" x2="248.1" y2="233.1"/>
				<line class="st6" x1="83.8" y1="233.1" x2="248.1" y2="233.1"/>
			</g>
			<g>
				<line class="st5" x1="83.8" y1="225.1" x2="248.1" y2="225.1"/>
				<line class="st6" x1="83.8" y1="225.1" x2="248.1" y2="225.1"/>
			</g>
			<g>
				<line class="st5" x1="83.8" y1="217.3" x2="248.1" y2="217.3"/>
				<line class="st6" x1="83.8" y1="217.3" x2="248.1" y2="217.3"/>
			</g>
			<g>
				<line class="st5" x1="83.8" y1="209.3" x2="248.1" y2="209.3"/>
				<line class="st6" x1="83.8" y1="209.3" x2="248.1" y2="209.3"/>
			</g>
		</g>
	</g>
	<polygon class="st10" points="185.8,295.3 176.2,287.8 166.1,295.3 166.1,264.6 185.8,264.6 	"/>
</g>
<g>
	<path class="st11" d="M345.5,330.7c13.2,0,18.7-7.3,20.9-14.9c2.5-8.7,0.6-17.9,0.6-17.9h-43.1c0,0-0.1,0.3-0.2,1
		C323,304.2,320.4,330.7,345.5,330.7z"/>
	<path class="st12" d="M323.9,297.7c0,0.6,9.6,1.1,21.6,1.1c11.9,0,21.6-0.5,21.6-1.1s-9.6-1.1-21.6-1.1
		C333.6,296.6,323.9,297.1,323.9,297.7z"/>
	<path class="st10" d="M287.1,215c0,0,22.7,24,36.4,38.5c13.7,14.6,17.2,17.6,18.9,22.3c1.7,4.7,3.1,22.1,3.1,22.1h1
		c0,0-0.3-14.7-1.6-19.8c-1.2-4.9,0.1-6.5,1-11.6c0.9-5.1,2.3-13.2-5.1-18.8c-7.4-5.6-5.4-11.1-8.1-14.8c-2.6-3.7-22.7-8.2-25.3-12
		C304.7,217.3,293.4,215,287.1,215z"/>
	<path class="st13" d="M287.1,215c0,0,7.2,5.6,12,7.6c4.9,1.9,7.2,0.2,10.9,4.9c3.7,4.7,3.9,6.6,7.3,9c3.4,2.4,7.5,2.5,7.8,7.7
		c0.3,5.2-1.7,9.5-1.7,9.5S288.6,216.2,287.1,215z"/>
	<path class="st10" d="M343.6,298h-1c0,0-0.3-4.8-3.1-7.2c-1.8-1.5-9.3-3.2-16.7-5.3c-4-1.1-8.2-2.3-11.2-3.7
		c-8.7-3.8-16.9-16.1-17.6-18.3c-0.2-0.7-0.3-1.2-0.3-1.6l0,0c0-0.6,0.4-0.6,1.1-1.2c0.3-0.3,1.3-0.2,2.7,0.1
		c3.7,0.8,6.8,2.5,8.8,4.9c1.8,2.2,4.7,4.9,8.2,5.5c6.1,1.1,5.6,1.9,7.9,6.1c2.2,4.3,8,5,15,10.1C344.6,292.8,343.6,298,343.6,298z"
		/>
	<path class="st14" d="M267.3,288.1c-3.5-1-7.1-2.2-9.7-3.5c-7.5-3.6-14.6-15.3-15.2-17.4c-0.2-0.7,30.8-1.1,30.8-1.5
		c0,0.1-30.7,2-26.9,3.2c4,1.2,4.9,1.2,5.4,3.2c0.5,2,1,4,3.1,4.5c2.2,0.4,3.4-1.5,5.1,1.6c1.7,2.9,2.5,3.9,4,4.4
		c1.6,0.4,2.7-0.2,3.1,2.1C267.1,285.9,267.2,287.3,267.3,288.1z"/>
	<path class="st10" d="M351.1,298h1.2c0,0,2.4-29.7,5.6-32.4c2.1-1.8,9-5,17.8-7.4c4.9-1.3,9.6-2.8,13.3-4.4
		c10.3-4.5,20-19,20.8-21.6c0.3-0.9,0.4-1.5,0.4-1.9l0,0c0-0.7-0.5-0.8-1.3-1.5c-0.4-0.3-1.7-0.2-3.2,0.1c-4.4,0.9-8.1,3-10.5,5.8
		c-2.2,2.6-5.5,5.7-9.7,6.5c-7.3,1.3-6.6,2.2-9.3,7.3c-2.7,5.1-9.3,5.9-17.8,11.9C350,266.6,351.1,298,351.1,298z"/>
	<path class="st13" d="M375.8,258.3c4.9-1.3,9.6-2.8,13.3-4.4c10.3-4.5,20-19,20.8-21.6c0.3-0.9,0.4-1.5,0.4-1.9
		c0,0.2-0.5,2.5-5.8,4c-5.5,1.6-6.6,1.6-7.4,4c-0.7,2.5-1.3,5-4.3,5.5c-2.9,0.5-4.7-1.8-6.9,1.9s-3.3,4.9-5.5,5.4
		c-2.1,0.5-3.7-0.2-4.1,2.6C376,255.6,375.8,257.3,375.8,258.3z"/>
	<g>
		<path class="st15" d="M345.5,330.7c13.2,0,18.7-7.3,20.9-14.9c-13-3.3-29.1-8.8-42.6-17C323,304.2,320.4,330.7,345.5,330.7z"/>
	</g>
</g>
<g>
	<path class="st11" d="M-106.4,331.7c10.8,0,15.3-6,17.2-12.3c2.1-7.2,0.5-14.8,0.5-14.8h-35.5c0,0-0.1,0.3-0.1,0.8
		C-125,310-127,331.7-106.4,331.7z"/>
	<path class="st12" d="M-124.1,304.6c0,0.5,8,0.9,17.7,0.9s17.7-0.4,17.7-0.9c0-0.5-8-0.9-17.7-0.9S-124.1,304.1-124.1,304.6z"/>
	<path class="st10" d="M-164.7,223.1c0,0,22.4,23.5,35.9,38.1c13.5,14.4,17,17.4,18.6,22.1c1.7,4.7,3.1,21.9,3.1,21.9h1.8
		c0,0,1.1-14.5-0.9-19.3c-2.1-4.8-1.2-6.6-0.3-11.6c0.9-5,2.2-13-5.1-18.6c-7.3-5.5-5.4-11-8-14.6c-2.6-3.6-22.4-8.1-25-11.8
		C-147.2,225.3-158.4,222.9-164.7,223.1z"/>
	<path class="st13" d="M-159.7,223.1c0,0,7.1,5.5,11.8,7.4c4.8,1.9,7.1,0.2,10.7,4.8c3.6,4.6,3.8,6.5,7.3,8.8
		c3.3,2.3,7.4,2.5,7.7,7.6c0.3,5.1-1.7,9.4-1.7,9.4S-158.3,224.2-159.7,223.1z"/>
	<path class="st10" d="M-99.7,304.6l1.2-0.2c0,0-2.2-6.1-0.1-9.7c1.3-2.4,10-6.4,18.3-11c4.6-2.5,9-5.1,12.1-7.6
		c8.8-7.1,12.5-24.6,12.2-27.6c-0.1-1-0.2-1.7-0.4-2.1l0,0c-0.3-0.7-0.9-0.7-2.2-1.2c-0.6-0.2-1.9,0.1-3.3,0.8c-4.3,2-7.3,5-8.5,8.4
		c-1,3.2-3.2,7.4-7.4,9.1c-7.1,3-6.1,3.8-6.5,9.7c-0.5,6-7.3,8.4-13.5,16.6C-103.7,298.1-99.7,304.6-99.7,304.6z"/>
	<path class="st13" d="M-80.2,283.6c4.6-2.5,9-5.1,12.1-7.6c8.8-7.1,12.5-24.6,12.2-27.6c-0.1-1-0.2-1.7-0.4-2.1
		c0.1,0.2,0.6,2.7-4.4,5.5c-5.2,2.9-6.3,3.1-5.9,5.9c0.3,2.7,0.9,5.6-2,6.7c-2.8,1.1-5.8-0.8-6.5,3.6c-0.7,4.5-1.3,6-3.3,6.9
		c-2,1-4,0.5-3.2,3.6C-81.1,280.7-80.6,282.5-80.2,283.6z"/>
	<g>
		<path class="st15" d="M-106.4,331.7c10.8,0,15.3-6,17.2-12.3c-10.7-2.8-24-7.3-35.2-14C-125,310-127,331.7-106.4,331.7z"/>
	</g>
</g>
<g>
	<g>
		<g>
			<path class="st16" d="M95.9,188.7c10.3,2.6,48.1,6.7,67,8.7c4.1,0.4,7.5,0.8,9.2,0.9c1,0.1,1.6,0.1,1.6,0.1s5-0.3,10.9-0.6
				c5.5-0.3,18.3-0.2,22.7-0.4c1.7-0.1,2.3-2.3,0.8-3.1c-2.6-1.5-13.5-5.9-18.9-6.5c-3.3-0.4-6.9-3.3-9.9-5
				c-2.3-1.2-4.8,0.9-6.7,1.7c-1,0.3-1.7,2.6-2.8,2.7c-0.3,0-0.5,0-0.8,0.1c-1.3,0.1-2.8,0-4.3-0.2c-0.4,0-0.7-0.1-1.1-0.2
				c-4.4-0.7-8-2.1-8-2.1c-13.4-6.9-42.9-25.3-66-20.4c-0.2,0-0.4,0.1-0.5,0.1c-0.2,0-0.4,0.1-0.5,0.1
				C65.5,170.4,82.1,185.3,95.9,188.7z"/>
			<path class="st17" d="M95.9,188.7c10.3,2.6,48.1,6.7,67,8.7l3.4-19.7c-0.6-0.1-1.3-0.1-2.1-0.2c-7.3-0.1-14.4-1.6-21.2-4.4
				c-15.2-6.4-36.8-13-54.5-8.6C65.5,170.4,82.1,185.3,95.9,188.7z"/>
		</g>
		<path class="st18" d="M178.2,183.4c0-2,2.4-3.1,2.4-3.1L199,187l10.1,5.4l2,2.8l-2.4,1.8l-20.5-2.9l-6.7-3.9L178.2,183.4z"/>
		<path class="st4" d="M168.9,187.3l3.2,11.2c1,0.1,1.6,0.1,1.6,0.1s5-0.3,10.9-0.6c5.5-0.3,18.3-0.2,22.7-0.4
			c1.7-0.1,2.3-2.3,0.8-3.1c-2.6-1.5-13.5-5.9-18.9-6.5c-3.3-0.4-6.9-3.3-9.9-5c-2.3-1.2-4.8,0.9-6.7,1.7c-1,0.3-1.7,2.6-2.8,2.7
			C169.4,187.2,169.2,187.3,168.9,187.3z"/>
	</g>
	<g>
		<g>
			<path class="st16" d="M200.2,184.5c-12.1,2.6-56.3,11-78.6,13c-5,0.4-8.8,0.8-10.9,0.9c-1.1,0.1-1.9,0.1-1.9,0.1s-5.8-0.3-13-0.6
				c-6.5-0.3-21.8-0.2-27-0.4c-2-0.1-2.7-2.3-0.9-3.1c3.1-1.5,16.1-5.9,22.5-6.5c3.9-0.4,8.2-3.3,11.6-5c2.7-1.2,5.6,0.9,8.1,1.7
				c1.1,0.3,2,2.6,3.3,2.7c0.3,0,0.6,0,1,0.1c1.7,0.1,3.3,0,5-0.2c0.4,0,0.9-0.1,1.3-0.2c5.2-0.7,9.5-2.1,9.5-2.1
				c16-6.9,51-25.3,78.3-20.4c0.2,0,0.4,0.1,0.7,0.1c0.2,0,0.4,0.1,0.7,0.1C237.3,170.4,216.6,181.1,200.2,184.5z"/>
			<path class="st19" d="M201.2,188.7c-12.1,2.6-57.1,6.7-79.5,8.7l-4-19.7c0.8-0.1,1.7-0.1,2.5-0.2c8.6-0.1,17.1-1.6,25.1-4.4
				c18.1-6.4,43.8-13,64.8-8.6C237.3,170.4,217.5,185.3,201.2,188.7z"/>
		</g>
		<path class="st18" d="M103.5,183.4c0-2-2.8-3.1-2.8-3.1L78.8,187l-11.9,5.4l-2.4,2.8l2.8,1.8l24.4-2.9l8-3.9L103.5,183.4z"/>
		<path class="st4" d="M114.5,187.3l-3.8,11.2c-1.1,0.1-1.9,0.1-1.9,0.1s-5.8-0.3-13-0.6c-6.5-0.3-21.8-0.2-27-0.4
			c-2-0.1-2.7-2.3-0.9-3.1c3.1-1.5,16.1-5.9,22.5-6.5c3.9-0.4,8.2-3.3,11.6-5c2.7-1.2,5.6,0.9,8.1,1.7c1.1,0.3,2,2.6,3.3,2.7
			C113.7,187.2,114,187.3,114.5,187.3z"/>
	</g>
	<g>
		<path class="st10" d="M189.5,148.1c0,0.9,0,1.8,0,2.7h-89.1c0-0.9,0-1.8,0-2.7c0-33,14.7-60.6,34.5-67.7
			c3.2-1.1,6.9,10.9,10.5,10.9c3.3,0,6.1-12,9.2-11C174.6,87.1,189.5,114.9,189.5,148.1z"/>
		<path class="st20" d="M154.6,80.3l-9.9,67.8l-9.9-67.7c3.2-1.1,6.6-1.8,10.1-1.8C148.3,78.6,151.5,79.1,154.6,80.3z"/>
		<polygon class="st16" points="150.3,85.2 144.8,93 139.4,85.2 138.2,69.5 151.6,69.5 		"/>
		<g>
			<path class="st18" d="M140.3,41.5c-2.7-4.7-1.5-11,2.3-14.8c3.7-3.9,9.3-5.6,14.7-5.3s10.5,2.3,15.2,4.9c5.1,2.8,10,6.3,13,11.3
				c3,5,4,11.4,1.3,16.6c-1.3,2.7-3.6,4.8-5.4,7.3c-1.8,2.5-3,5.6-2,8.5c1.1,3.2,4.7,5,6.2,8.1c1.6,3.3,0.1,7.6-2.9,9.5
				c-3,2-7.4,1.7-10.3-0.5c-2.9-2.2-4.5-6-4.3-9.6c0.2-3.3,1.7-6.4,3.1-9.3c1.6-2.9,3.1-5.9,3.7-9.1c0.6-3.2-0.1-6.9-2.6-9.1
				c-3.5-3.1-8.9-2-13.6-2c-7.4-0.1-14.6-3.9-18.9-10"/>
		</g>
		<path class="st18" d="M126.4,54.9c0-11.1,8.2-18.5,18.4-18.5c10.2,0,18.4,7.4,18.4,18.5S154.9,75,144.7,75
			C134.7,74.9,126.4,65.9,126.4,54.9z"/>
		<path class="st21" d="M130.5,59c0-9.3,6.3-16.9,14.2-16.9c7.9,0,14.2,7.6,14.2,16.9s-6.3,18.4-14.2,18.4
			C137,77.4,130.5,68.4,130.5,59z"/>
		<g>
			<path class="st18" d="M136.7,47.6c6.9,6.9,15.9,10.3,24.6,9c-1-6.7-4.5-12.8-9.1-16.1s-10.6-3.6-15.3-0.7
				c-4.8,3-8.3,9.3-8.6,16.2c3.9,0.4,7.8-3.6,8.3-8.6"/>
		</g>
		
			<ellipse transform="matrix(-0.9058 0.4237 -0.4237 -0.9058 275.7025 64.8726)" class="st21" cx="130.6" cy="63.1" rx="2.3" ry="4.1"/>
		
			<ellipse transform="matrix(-0.4237 0.9058 -0.9058 -0.4237 283.6947 -54.2969)" class="st21" cx="159.1" cy="63.1" rx="4.1" ry="2.3"/>
		<circle class="st8" cx="132" cy="66.8" r="1.5"/>
		<circle class="st8" cx="157.5" cy="66.8" r="1.5"/>
	</g>
	<g>
		<g>
			<path class="st3" d="M143.2,142.7c0-6.3-16.2-24.4-36.4-22.7c0,5,2.2,11.5,2.2,11.5L143.2,142.7z"/>
			<path class="st0" d="M144.8,141.9c-2.8-5-16.2-20.7-43.4-20.5c0,6.5,2.8,10.2,2.8,10.2L144.8,141.9z"/>
			<path class="st15" d="M140.7,140.5c-6.5-6.5-24.7-15-42.9-14.2c0.3,15.9,1,52,1,52s34.7,2.8,41.9,7.9
				C140.7,179.1,140.7,140.5,140.7,140.5z"/>
			<path class="st3" d="M146.5,142.7c0-6.3,16.2-24.4,36.4-22.7c0,5-2.2,11.5-2.2,11.5L146.5,142.7z"/>
			<path class="st0" d="M144.8,141.9c2.8-5,16.2-20.7,43.4-20.5c0,6.5-2.8,10.2-2.8,10.2L144.8,141.9z"/>
			<path class="st15" d="M149,140.5c6.5-6.5,24.7-15,42.9-14.2c-0.3,15.9-1,52-1,52s-34.7,2.8-41.9,7.9
				C149,179.1,149,140.5,149,140.5z"/>
			<rect x="140.7" y="140.5" class="st22" width="8.2" height="45.6"/>
		</g>
		<rect x="143.2" y="140.5" class="st23" width="3.3" height="45.6"/>
	</g>
	<path class="st16" d="M96.4,140.5c0,0-3.5,10.7-2.5,12c1.1,1.3,9.5,7.7,9.5,7.7s0.8-9.5-2.2-12.5C98.3,144.6,96.4,140.5,96.4,140.5
		z"/>
	<path class="st16" d="M193.2,140.5c0,0,3.5,10.7,2.5,12s-9.5,7.7-9.5,7.7s-0.8-9.5,2.2-12.5C191.2,144.6,193.2,140.5,193.2,140.5z"
		/>
</g>
</svg>
