<?xml version="1.0" encoding="utf-8"?>
<!-- Generator: Adobe Illustrator 19.0.0, SVG Export Plug-In . SVG Version: 6.00 Build 0)  -->
<svg version="1.1" id="Camada_1" xmlns="http://www.w3.org/2000/svg" xmlns:xlink="http://www.w3.org/1999/xlink" x="0px" y="0px"
	 viewBox="-262 217 434 127" style="enable-background:new -262 217 434 127;" xml:space="preserve">
<style type="text/css">
	.st0{fill:#E0F2FF;}
</style>
<g>
	<path class="st0" d="M-246,236.5h22.2l16.2,51.9l16.2-51.9h21.4l11.1,86.6h-17.8l-7.6-60.9l-19,60.9h-8.5l-19.5-61.4l-7.2,61.4
		h-18.1L-246,236.5z"/>
	<path class="st0" d="M-108.5,323v-9.7h-0.3c-2.6,3.8-5.3,6.5-8,8.2c-2.7,1.7-6,2.5-10,2.5c-6.6,0-12.3-2.9-16.9-8.6
		c-4.7-5.7-7-12.7-7-20.8c0-8.1,2.5-15,7.4-20.8c5-5.8,10.9-8.7,17.7-8.7c3.3,0,6.2,0.7,8.8,2.2c2.6,1.5,5.3,3.8,8.2,6.9v-7.8h16.9
		V323H-108.5z M-120.9,282.1c-3.3,0-6.1,1.3-8.4,4c-2.2,2.7-3.4,6-3.4,10.1c0,3.8,1.1,6.8,3.2,9.1c2.1,2.3,4.9,3.5,8.4,3.5
		c3.3,0,6.2-1.3,8.6-4s3.6-5.9,3.6-9.7c0-3.5-1.2-6.6-3.6-9.1C-114.8,283.4-117.6,282.1-120.9,282.1z"/>
	<path class="st0" d="M-33.1,274.3l-11.5,7c-3.3-3.3-6.4-5-9.3-5c-1.4,0-2.6,0.4-3.6,1.2s-1.5,1.8-1.5,2.9c0,1.8,0.6,3.2,1.8,4
		c1.2,0.8,4.3,2.1,9.4,3.9c5.1,1.7,9.1,4,12,6.7s4.4,6.5,4.4,11.3c0,4.9-2.2,9.1-6.6,12.6c-4.4,3.5-9.7,5.2-15.8,5.2
		c-4.2,0-8.3-1.2-12.5-3.5c-4.2-2.3-7.7-5.9-10.6-10.7l13.6-6.2c3.1,5.3,6.3,8,9.6,8c1.5,0,2.8-0.5,4-1.4s1.8-2.1,1.8-3.3
		c0-1.6-0.7-2.8-2-3.6c-1.4-0.8-2.4-1.2-3-1.2c-0.3-0.3-1.8-0.9-4.7-1.8c-11.3-3.7-17-9.7-17-18c0-5,2-9.1,6.1-12.3
		c4.1-3.2,9.4-4.8,15.9-4.8C-45.6,265.2-39,268.2-33.1,274.3z"/>
	<path class="st0" d="M-17.2,246.9h16.9v19.4h8.1v15.5h-8.1V323h-16.9v-41.2h-6.5v-15.5h6.5V246.9z"/>
	<path class="st0" d="M70.6,298.7H30.2c0.2,3.6,1.4,6.6,3.6,8.9c2.2,2.3,4.7,3.4,7.6,3.4c5.2,0,9.3-2.4,12.2-7.1l15.5,5.1
		c-5.8,10.1-14.7,15.1-26.8,15.1c-8.9,0-16-2.7-21.3-8.1s-7.9-12.7-7.9-21.8c0-8.2,2.8-15.1,8.3-20.7c5.6-5.6,12.4-8.4,20.5-8.4
		c8.2,0,15,2.9,20.5,8.8c5.5,5.9,8.2,13.2,8.2,22V298.7z M30.4,287.4h22.8c-1.6-7.1-5.2-10.6-10.9-10.6c-3.3,0-5.9,0.9-8.1,2.8
		S30.8,284,30.4,287.4z"/>
	<path class="st0" d="M98.6,266.3v8.4h0.3c1.7-2.8,3.6-5,5.8-6.7c2.2-1.6,4.3-2.5,6.2-2.5c1.1,0,2.2,0.1,3.1,0.3v18.5
		c-1.4-0.3-2.8-0.4-4.2-0.4c-3.5,0-6.2,1.2-8.1,3.7c-1.9,2.4-2.9,5.9-2.9,10.3V323H81.7v-56.7H98.6z"/>
	<path class="st0" d="M166.5,274.3l-11.5,7c-3.3-3.3-6.4-5-9.3-5c-1.4,0-2.6,0.4-3.6,1.2s-1.5,1.8-1.5,2.9c0,1.8,0.6,3.2,1.8,4
		c1.2,0.8,4.3,2.1,9.4,3.9c5.1,1.7,9.1,4,12,6.7s4.4,6.5,4.4,11.3c0,4.9-2.2,9.1-6.6,12.6c-4.4,3.5-9.7,5.2-15.8,5.2
		c-4.2,0-8.3-1.2-12.5-3.5c-4.2-2.3-7.7-5.9-10.6-10.7l13.6-6.2c3.1,5.3,6.3,8,9.6,8c1.5,0,2.8-0.5,4-1.4s1.8-2.1,1.8-3.3
		c0-1.6-0.7-2.8-2-3.6c-1.4-0.8-2.4-1.2-3-1.2c-0.3-0.3-1.8-0.9-4.7-1.8c-11.3-3.7-17-9.7-17-18c0-5,2-9.1,6.1-12.3
		c4.1-3.2,9.4-4.8,15.9-4.8C154,265.2,160.6,268.2,166.5,274.3z"/>
</g>
</svg>
