<?xml version="1.0" encoding="utf-8"?>
<!-- Generator: Adobe Illustrator 19.0.0, SVG Export Plug-In . SVG Version: 6.00 Build 0)  -->
<svg version="1.1" id="Camada_1" xmlns="http://www.w3.org/2000/svg" xmlns:xlink="http://www.w3.org/1999/xlink" x="0px" y="0px"
	 viewBox="-262 117 434 127" style="enable-background:new -262 117 434 127;" xml:space="preserve">
<style type="text/css">
	.st0{fill:#e0f2ff;}
</style>
<path class="st0" d="M-189.2,122.4h-52c-13.8,0-20.8,6.7-20.8,20v71.1c0,1.7,0.9,2.8,3,2.8h15.7c1.9,0,3.1-1.1,3.1-2.8v-2.7
	c0-6.6,2.8-10.2,9.7-10.9h41.3c15.2,0,22-6.6,22-20.9v-35.7C-167.2,128.9-174.1,122.4-189.2,122.4z M-189,173c0,7.8-1.8,9.4-11,9.4
	h-22c-9.3,0-15.2,3.1-18.3,9.1v-43.9c0-6,1.5-7.7,8.9-7.7h31.4c9.3,0,11,1.6,11,9.4V173z"/>
<path class="st0" d="M-117.4,161.7c-11.9,0-17.1,6-17.1,16.2v35.8c0,1.6-0.8,2.5-2.7,2.5h-14.2c-1.9,0-2.8-0.9-2.8-2.5v-65.5
	c0-1.6,0.9-2.6,2.8-2.6h11.9c1.8,0,2.7,0.9,2.7,2.6v10.6c2.3-8.7,8.9-13.2,20.5-13.2h4.8c1.7,0,2.7,0.9,2.7,2.6v10.9
	c0,1.7-0.9,2.5-2.7,2.5H-117.4z"/>
<path class="st0" d="M-24.8,197.1c0,13.3-5.9,19.2-20,19.2h-34.9c-14,0-20-5.9-20-19.2v-32.2c0-13.3,6-19.2,20-19.2h34.9
	c14.1,0,20,5.9,20,19.2V197.1z M-44.5,170c0-7-1.3-8.3-9.7-8.3h-16c-8.5,0-9.8,1.3-9.8,8.3v22c0,7,1.3,8.3,9.8,8.3h16
	c8.3,0,9.7-1.3,9.7-8.3V170z"/>
<path class="st0" d="M-4.9,161.7h-6.7c-1.8,0-2.7-0.8-2.7-2.5v-10.9c0-1.6,0.9-2.6,2.7-2.6h6.7V137c0-13.3,7-20,20.8-20h16.5
	c1.9,0,2.7,0.9,2.7,2.5v10.9c0,1.8-0.8,2.5-2.7,2.5h-8.7c-7.4,0-8.9,1.6-8.9,7.7v5.1h17.6c1.9,0,2.7,0.9,2.7,2.6v10.9
	c0,1.7-0.8,2.5-2.7,2.5H14.8v52.1c0,1.6-0.9,2.5-2.8,2.5H-2.3c-1.9,0-2.7-0.9-2.7-2.5V161.7z"/>
<path class="st0" d="M49.8,161.7h-6.7c-1.7,0-2.7-0.8-2.7-2.5v-10.9c0-1.6,0.9-2.6,2.7-2.6h6.7V137c0-13.3,7-20,20.8-20h16.5
	c1.9,0,2.7,0.9,2.7,2.5v10.9c0,1.8-0.8,2.5-2.7,2.5h-8.7c-7.4,0-8.9,1.6-8.9,7.7v5.1h17.6c1.9,0,2.7,0.9,2.7,2.6v10.9
	c0,1.7-0.8,2.5-2.7,2.5H69.6v52.1c0,1.6-0.9,2.5-2.8,2.5H52.5c-1.9,0-2.7-0.9-2.7-2.5V161.7z"/>
<path class="st0" d="M149.8,243.7h-29.3c-13.1,0-18.8-5.1-18.8-17.7v-1.3c0-0.4,0-0.7,0.1-1.1c0.1-0.3,0.3-0.7,0.6-0.9
	c0.3-0.3,0.6-0.4,0.9-0.6c0.3-0.1,0.7-0.2,1.1-0.1h13.7c1.9,0,2.8,0.9,2.8,2.7v0.7c0,2.7,1.5,3.8,4.4,3.8h16.9
	c8.1,0,10.1-2,10.1-8.9v-21.2c-3.1,6-9,9.1-18.3,9.1h-13.7c-14,0-20.1-5.9-20.1-19.2v-40.7c0-0.4,0-0.7,0.2-1
	c0.1-0.3,0.3-0.6,0.6-0.9c0.3-0.2,0.6-0.4,0.9-0.5c0.3-0.1,0.7-0.2,1-0.1h14.4c1.7,0,2.7,0.9,2.7,2.6V184c0,7,1.5,8.3,9.8,8.3H140
	c8.9,0,12.4-3.6,12.4-11v-33c0-1.6,0.9-2.6,2.7-2.6h14.4c0.3,0,0.7,0,1,0.1c0.3,0.1,0.6,0.3,0.9,0.5c0.2,0.2,0.4,0.5,0.5,0.9
	c0.1,0.3,0.2,0.7,0.1,1v74.1C172,236.5,164.5,243.7,149.8,243.7z"/>
</svg>
